<svg width="852" height="198" viewBox="0 0 852 198" fill="none" xmlns="http://www.w3.org/2000/svg">
<g clip-path="url(#clip0_122_1110)">
<path d="M278.352 128.239V127.797C278.352 102.06 298.033 90.1877 326.076 90.1877C335.931 90.1055 345.724 91.753 355.006 95.0547V93.0636C355.006 79.1999 346.349 71.4569 329.553 71.4569C318.362 71.4678 307.28 73.6468 296.924 77.8726L288.563 52.3575C302.93 45.7614 318.623 42.5325 334.437 42.9184C352.786 42.9184 366.031 47.7117 374.392 56.1184C378.911 61.2344 382.369 67.1919 384.566 73.6469C386.763 80.1019 387.655 86.9267 387.192 93.7273V162.53H354.784V149.33C350.272 154.263 344.723 158.143 338.532 160.693C332.342 163.242 325.663 164.398 318.973 164.078C296.702 164.299 278.352 151.542 278.352 128.239ZM355.376 120.865V114.597C348.639 111.649 341.35 110.166 333.993 110.246C319.639 110.246 310.834 115.924 310.834 126.469V126.912C310.834 135.982 318.233 141.218 329.109 141.218C344.795 141.218 355.376 133.032 355.376 120.57V120.865Z" fill="#152336"/>
<path d="M416.122 44.5409H449.936V68.2861C456.817 51.9889 467.842 41.4437 487.671 42.3286V76.9878H485.969C463.772 76.9878 449.936 90.409 449.936 118.579V162.53H416.122V44.5409Z" fill="#152336"/>
<path d="M500.841 103.535V103.093C500.841 63.7139 526.664 42.181 554.706 42.181C561.822 42.0081 568.879 43.5067 575.306 46.5557C581.733 49.6047 587.349 54.1184 591.702 59.7318V1.54858H625.293V162.53H591.554V145.569C587.492 151.592 581.974 156.499 575.509 159.837C569.043 163.175 561.838 164.837 554.558 164.668C527.108 164.299 500.841 142.766 500.841 103.535ZM591.998 103.535V103.093C591.998 83.5508 578.975 70.5721 563.363 70.5721C547.751 70.5721 534.433 83.3296 534.433 103.093V103.535C534.433 123.151 547.677 136.13 563.363 136.13C579.049 136.13 591.998 123.003 591.998 103.535Z" fill="#152336"/>
<path d="M660.883 72.7843H646.972V45.2781H660.883V37.9038C660.487 32.7476 661.121 27.5644 662.746 22.6535C664.372 17.7426 666.957 13.2012 670.353 9.29155C674.054 6.07 678.36 3.61526 683.023 2.07059C687.685 0.525928 692.609 -0.0777141 697.508 0.294896C705.578 0.0983074 713.626 1.21926 721.333 3.61333V31.3407C716.499 29.455 711.356 28.4799 706.165 28.4647C698.766 28.4647 694.03 32.4469 694.03 41.2223V45.7943H721.185V73.0793H694.474V162.53H660.883V72.7843Z" fill="#152336"/>
<path d="M737.907 189.814L749.153 165.627C753.474 168.344 758.409 169.941 763.507 170.273C766.1 170.595 768.724 169.995 770.916 168.578C773.109 167.162 774.73 165.02 775.494 162.53L728.88 44.5408H764.395L791.328 124.773L817.15 44.5408H852L806.57 164.963C797.543 188.93 787.776 198 767.725 198C757.208 198.143 746.867 195.304 737.907 189.814Z" fill="#152336"/>
<path d="M33.5917 146.749V162.53H0V1.54858H33.5917V61.1329C37.653 55.1094 43.171 50.2022 49.6366 46.8642C56.1023 43.5262 63.3073 41.8649 70.5869 42.0335C98.1853 42.0335 124.452 63.5665 124.452 102.945V103.535C124.452 142.914 98.6293 164.447 70.5869 164.447C63.4586 164.603 56.394 163.081 49.9661 160.006C43.5383 156.931 37.9284 152.389 33.5917 146.749ZM90.7123 103.535V103.093C90.7123 83.5508 77.468 70.5721 61.856 70.5721C46.244 70.5721 33.1477 83.5508 33.1477 103.093V103.535C33.1477 123.151 46.1701 136.13 61.856 136.13C77.542 136.13 90.7123 123.225 90.7123 103.535Z" fill="#152336"/>
<path d="M200.292 162.087C232.452 162.087 258.523 136.104 258.523 104.051C258.523 71.9991 232.452 46.0156 200.292 46.0156C168.132 46.0156 142.062 71.9991 142.062 104.051C142.062 136.104 168.132 162.087 200.292 162.087Z" stroke="#152336" stroke-width="1.03" stroke-miterlimit="10"/>
</g>
<defs>
<clipPath id="clip0_122_1110">
<rect width="852" height="198" fill="white"/>
</clipPath>
</defs>
</svg>
