<svg width="600" height="150" viewBox="0 0 600 150" fill="none" xmlns="http://www.w3.org/2000/svg">
<g clip-path="url(#clip0_465_3554)">
<path d="M28.4773 58.8603H0V87.3376H28.4773V58.8654V58.8603ZM56.9596 30.3881H28.4773V58.8704H56.9596V30.3881ZM56.9596 87.3376H28.4773V115.82H56.9596V87.3376ZM170.854 87.3376H199.336V58.8654H170.859V87.3427L170.854 87.3376ZM142.376 115.81H170.859V87.3276H142.376V115.81ZM142.381 58.8603H170.859V30.378H142.386V58.8654L142.381 58.8603ZM85.4269 1.89062H56.9496V30.3679H85.4269V1.89062ZM85.4269 115.81H56.9496V144.287H85.4269V115.81ZM142.397 1.89062H113.914V30.3679H142.397V1.89062ZM142.397 115.81H113.914V144.287H142.397V115.81Z" fill="#1A2233"/>
<path d="M28.4773 58.8605H0V87.3378H28.4773V58.8655V58.8605ZM56.9596 30.3882H28.4773V58.8706H56.9596V30.3882ZM56.9596 87.3378H28.4773V115.82H56.9596V87.3378ZM170.854 87.3378H199.336V58.8655H170.859V87.3429L170.854 87.3378Z" fill="#1A2233"/>
<path d="M142.377 115.81H170.859V87.3276H142.377V115.81ZM142.382 58.8603H170.859V30.378H142.387V58.8654L142.382 58.8603ZM85.427 1.89062H56.9497V30.3679H85.427V1.89062ZM85.427 115.81H56.9497V144.287H85.427V115.81ZM142.397 1.89062H113.914V30.3679H142.397V1.89062ZM142.397 115.81H113.914V144.287H142.397V115.81ZM256.306 74.1528C256.306 56.6116 268.493 44.2032 285.005 44.2032C297.842 44.2032 309.479 51.378 311.415 65.1528H299.809C298.437 59.2284 292.977 54.3326 285.005 54.3326C274.957 54.3326 267.807 62.7629 267.807 74.1477C267.807 85.0788 274.412 93.2822 285.111 93.2822C292.972 93.2822 297.867 89.4049 300.025 83.2587H311.642C309.595 95.541 299.234 103.412 285.111 103.412C267.585 103.412 256.306 90.8872 256.306 74.1528ZM319.266 73.8099C319.266 56.5057 331.543 44.2234 348.288 44.2234C365.032 44.2234 377.552 56.6318 377.552 73.8099C377.552 90.9881 365.027 103.396 348.288 103.396C331.679 103.417 319.266 90.8923 319.266 73.8099ZM366.061 73.8099C366.061 63.1108 358.891 54.3427 348.303 54.3427C337.715 54.3427 330.772 63.1108 330.772 73.8099C330.772 84.4183 337.715 93.2872 348.303 93.2872C358.891 93.2872 366.066 84.4032 366.066 73.8099H366.061ZM441.908 21.4284V102.272H432.449L431.431 94.6486H430.634C427.785 98.5158 422.204 103.412 412.639 103.412C397.382 103.412 386.219 91.6889 386.219 73.694C386.219 55.4721 397.725 44.1982 412.639 44.1982C421.412 44.1982 427.326 48.1864 430.291 51.9427V21.4284H441.908ZM430.286 73.694C430.286 62.1982 424.024 54.3326 414.343 54.3326C404.552 54.3326 397.831 62.1982 397.831 73.694C397.831 85.4166 404.531 93.2771 414.343 93.2771C424.024 93.2771 430.286 85.4217 430.286 73.694ZM506.577 76.7545H464.441C465 86.8839 471.141 93.9477 481.19 93.9477C488.36 93.9477 493.594 90.9881 495.424 85.1746H506.587C504.192 96.5645 494.632 103.396 481.195 103.396C464.794 103.396 453.066 91.9007 453.066 74.3696C453.066 55.8099 465.252 44.1982 480.736 44.1982C494.632 44.1982 506.814 53.42 506.814 73.0082C506.804 74.1326 506.688 75.2771 506.577 76.7545ZM464.557 68.5511H495.53C495.419 59.783 489.494 53.6368 480.726 53.6368C471.731 53.6368 465.691 60.2419 464.557 68.5511ZM518.446 21.4284H530.062V102.272H518.446V21.4284ZM542.325 124.926V116.158C544.301 116.627 546.323 116.894 548.355 116.954C553.594 116.954 558.263 114.786 560.768 108.756L563.269 102.267H559.513L537.54 45.3276H549.605L566.461 90.3024H567.373L583.185 45.3326H595.256L571.568 110.465C569.98 115.139 565.881 126.176 550.851 126.176C547.966 126.133 545.1 125.713 542.325 124.926Z" fill="#1A2233"/>
</g>
<defs>
<clipPath id="clip0_465_3554">
<rect width="600" height="150" fill="white"/>
</clipPath>
</defs>
</svg>
