<?xml version="1.0" encoding="UTF-8"?>
<svg width="417px" height="77px" viewBox="0 0 417 77" version="1.1" xmlns="http://www.w3.org/2000/svg" xmlns:xlink="http://www.w3.org/1999/xlink">
    <!-- Generator: Sketch 54.1 (76490) - https://sketchapp.com -->
    <title>idealista</title>
    <desc>Created with Sketch.</desc>
    <g id="idealista" stroke="none" stroke-width="1" fill="none" fill-rule="evenodd">
        <path d="M101,44 L125,44 L125,33 L136,33 L136,55 L125,55 L101,55 L101,66 L90,66 L90,33 L101,33 L101,44 Z M406,44 L406,33 L417,33 L417,77 L406,77 L382,77 L382,66 L406,66 L406,55 L382,55 L382,44 L406,44 Z M182,44 L182,33 L193,33 L193,77 L182,77 L158,77 L158,66 L182,66 L182,55 L158,55 L158,44 L182,44 Z M338,22 L338,0 L349,0 L349,22 L360,22 L360,33 L349,33 L349,66 L338,66 L338,33 L327,33 L327,22 L338,22 Z M215,0 L226,0 L226,77 L215,77 L215,11 L204,11 L204,0 L215,0 Z M68,22 L68,0 L79,0 L79,77 L68,77 L45,77 L45,66 L68,66 L68,33 L45,33 L45,22 L68,22 Z M260,33 L260,77 L249,77 L249,33 L237,33 L237,22 L260,22 L260,33 Z M23,33 L23,77 L12,77 L12,33 L0,33 L0,22 L23,22 L23,33 Z M12,0 L23,0 L23,11 L12,11 L12,0 Z M249,0 L260,0 L260,11 L249,11 L249,0 Z M349,66 L360,66 L360,77 L349,77 L349,66 Z M271,33 L282,33 L282,44 L271,44 L271,33 Z M305,55 L316,55 L316,66 L305,66 L305,55 Z M101,22 L125,22 L125,33 L101,33 L101,22 Z M158,22 L182,22 L182,33 L158,33 L158,22 Z M382,22 L406,22 L406,33 L382,33 L382,22 Z M282,22 L316,22 L316,33 L282,33 L282,22 Z M282,44 L305,44 L305,55 L282,55 L282,44 Z M271,66 L305,66 L305,77 L271,77 L271,66 Z M101,66 L124,66 L124,77 L101,77 L101,66 Z M34,33 L45,33 L45,66 L34,66 L34,33 Z M147,55 L158,55 L158,66 L147,66 L147,55 Z M371,55 L382,55 L382,66 L371,66 L371,55 Z" id="Combined-Shape" fill="#000000"></path>
    </g>
</svg>