<svg width="783" height="212" viewBox="0 0 783 212" fill="none" xmlns="http://www.w3.org/2000/svg">
<path fill-rule="evenodd" clip-rule="evenodd" d="M60.0832 47.871C63.6926 47.871 67.0876 48.2927 70.4848 49.349C73.8798 50.4033 77.0648 51.8794 80.2518 53.5662C83.4367 55.466 86.1952 57.3658 88.7415 59.2636C91.2898 61.3742 93.624 63.6937 95.5337 66.0131L97.6577 58.8418C98.5105 56.0986 99.7816 52.7228 101.053 48.7144H116.763V212H95.9622V151.244C95.9622 150.894 95.9498 150.603 95.9148 150.31V95.5172C95.6099 94.5304 95.2926 93.5478 94.8992 92.5958C92.9894 87.9528 90.0146 83.7336 86.4094 79.7252C82.798 75.7168 78.5522 72.9756 73.8798 71.0779C69.4217 69.1781 64.325 68.1238 59.0202 68.1238C53.7154 68.1238 48.6187 69.1781 44.1627 71.0779C39.7005 72.9756 35.4566 75.7168 31.8473 79.7252C28.0279 83.7336 25.2652 87.9528 23.3555 92.5958C21.4458 97.2348 20.3828 102.299 20.3828 107.784C20.3828 113.268 21.2315 118.333 23.1413 122.974C25.0551 127.615 28.0279 131.834 31.6331 135.843C35.2424 139.851 39.4903 142.594 44.1627 144.492C48.6187 146.392 53.7154 147.444 59.0202 147.444C64.325 147.444 69.4217 146.392 73.8798 144.492C74.0817 144.408 74.2733 144.302 74.4752 144.216V165.75C73.8448 165.969 73.2535 166.231 72.6067 166.432C69.4217 167.486 65.8165 168.331 61.993 168.542C57.5349 168.753 53.2869 168.542 48.8288 167.697C44.3707 166.855 39.7005 165.379 34.818 163.478C29.9355 161.582 25.6876 158.839 21.6539 155.672C17.8344 152.509 14.2251 148.924 11.0402 144.703C9.34468 142.383 7.85934 140.062 6.37193 137.319C5.09672 134.577 4.0337 131.834 2.97274 129.093C1.91385 126.139 1.27727 122.974 0.852887 119.809C0.214252 116.646 0 113.268 0 109.682C0 105.673 0.214252 101.878 0.852887 98.2911C1.27727 94.7044 1.91385 91.5415 2.97274 88.3766C4.0337 85.2116 5.09672 82.2576 6.37193 79.5164C7.85934 76.7731 9.34468 74.0299 11.0402 71.7084C14.2251 67.2803 17.8344 63.6937 21.6539 60.5287C25.6876 57.3658 29.9355 54.8335 34.3957 52.9337C38.4294 51.2468 42.4631 49.9796 46.4968 49.1382C50.5305 48.2927 54.3499 47.871 57.9572 47.871H60.0832ZM165.471 47.871V116.333C165.471 121.552 166.101 125.933 167.154 129.484C168.413 133.03 170.305 135.951 172.62 137.831C174.932 139.708 177.666 141.377 180.61 142.422C183.763 143.466 186.917 143.883 190.492 143.883C195.748 143.883 200.794 143.048 205.209 141.377C209.627 139.708 213.409 137.205 216.566 133.656C219.716 130.108 222.452 126.351 223.923 122.385C225.603 118.21 226.235 113.621 226.235 108.818V47.871H247.263C247.157 76.78 247.104 100.888 247.077 120.168L247.071 125.307C247.068 127.817 247.065 130.236 247.063 132.566L247.058 139.286C247.057 140.002 247.057 140.709 247.056 141.406L247.051 163.503H230.65L225.815 145.554V144.928C223.923 147.64 222.032 150.145 219.716 152.442C217.404 154.735 214.883 156.617 212.15 158.077C209.414 159.746 206.26 161 203.11 162.043C199.953 163.086 196.591 163.712 193.016 163.92C191.963 164.129 191.124 164.129 190.28 164.129H187.55C181.869 164.129 176.403 163.295 171.57 161.626C166.522 159.955 161.894 157.449 157.899 153.903C153.278 149.937 149.909 144.719 147.597 138.457C145.288 132.196 144.237 124.682 144.237 116.124V47.871H165.471ZM333.016 47.871C338.217 47.871 343.424 48.4913 348.209 49.7318C352.996 50.9744 357.576 52.8373 361.945 55.5252C366.316 58.0063 370.064 60.905 373.603 64.2131C377.144 67.5233 380.056 71.245 382.761 75.3843C384.217 77.6586 385.467 79.935 386.509 82.2114C387.545 84.6925 388.588 87.1737 389.212 89.8656C389.838 92.5535 390.464 95.0346 390.878 97.7245C391.294 100.412 391.5 103.104 391.5 105.794C391.5 108.689 391.294 111.586 390.878 114.273C390.464 116.963 389.838 119.447 389.212 122.134C388.588 124.824 387.545 127.307 386.509 129.584C385.467 132.063 384.217 134.339 382.761 136.616C380.056 140.753 377.144 144.477 373.603 147.785C370.064 151.095 366.316 153.992 361.945 156.475C357.576 159.165 352.996 161.024 348.209 162.266C343.424 163.507 338.217 164.129 333.016 164.129C327.816 164.129 322.819 163.507 318.03 162.266C313.243 161.024 308.662 159.165 304.292 156.475C299.923 153.992 295.968 151.095 292.638 147.785C289.099 144.477 286.185 140.753 283.478 136.616C282.022 134.339 280.774 132.063 279.734 129.584C278.691 127.307 277.651 124.824 277.025 122.134C276.405 119.447 275.779 116.963 275.363 114.273C274.947 111.586 274.737 108.689 274.737 106.001C274.737 103.311 274.947 100.621 275.363 97.9333C275.779 95.2434 276.405 92.7603 277.025 90.0724C277.651 87.3825 278.691 84.8993 279.734 82.4182C280.774 79.935 282.022 77.6586 283.478 75.3843C286.185 71.245 289.099 67.5233 292.638 64.2131C295.968 60.905 299.923 58.0063 304.292 55.5252C308.662 52.8373 313.243 50.9744 318.03 49.7318C322.819 48.4913 327.816 47.871 333.016 47.871ZM576.947 47.871V164.129H556.342V47.871H576.947ZM652.704 47.871C654.148 47.871 655.589 47.871 657.031 48.0781L661.566 48.4904C665.685 48.9066 670.01 50.3586 674.545 52.2228C679.08 54.2961 683.817 57.196 688.56 60.7193C683.817 67.7658 680.11 72.9462 677.638 76.4694C677.018 75.846 676.195 75.4338 675.369 74.8104L672.483 73.3604L665.893 70.2534C663.627 69.2158 661.566 68.5944 659.296 67.9709C657.031 67.5587 654.56 67.1424 652.294 66.9353C650.025 66.7281 647.759 67.1424 645.494 67.7658C643.432 68.3872 641.579 69.4229 639.721 70.8728C638.693 71.7034 637.663 72.5319 637.046 73.5676L635.19 76.4694C634.572 77.5051 634.364 78.5408 634.158 79.5784C633.952 80.6141 633.748 81.6498 633.952 82.6854C634.158 83.7231 634.364 84.5496 634.78 85.5873C635.19 86.623 635.81 87.4535 636.424 88.2801C637.046 89.3177 637.663 90.1463 638.693 90.7677L641.578 92.6339L645.698 94.4981C647.139 95.1195 648.789 95.5358 650.644 96.1551L661.154 99.2662L664.861 100.507C666.095 100.923 667.335 101.337 668.776 101.545L672.279 102.787L675.369 104.03C678.05 105.068 680.522 106.518 682.787 108.382C684.849 110.248 686.702 112.32 688.352 114.6C689.795 116.881 691.235 119.161 692.267 121.854C693.299 124.548 693.711 127.243 693.711 129.936V131.386C693.711 134.081 693.299 136.568 692.679 138.847C692.059 141.125 691.235 143.613 689.795 145.893C688.352 148.381 686.702 150.659 684.849 152.524C682.993 154.597 680.727 156.461 678.05 157.913C676.195 158.949 674.135 159.984 672.279 160.606L666.095 162.472C663.829 163.093 661.77 163.508 659.712 163.715C657.443 163.922 655.381 164.129 653.324 164.129C648.581 164.129 644.052 163.715 639.721 162.677C635.396 161.643 631.069 160.193 626.95 157.913L617.058 152.524C614.377 151.074 612.319 149.415 611.289 148.381L622.825 133.043C623.445 133.666 624.678 134.081 626.328 135.118L632.307 138.64C634.78 140.09 637.455 141.125 640.137 142.163C642.814 142.993 645.698 143.613 648.789 144.234C650.438 144.443 652.084 144.65 653.736 144.65C655.381 144.856 657.031 144.65 658.885 144.443C660.534 144.234 662.184 143.82 663.829 143.406C665.481 142.784 667.127 142.163 668.568 141.125C669.6 140.506 670.426 139.882 671.25 139.056C672.072 138.225 672.691 137.395 673.311 136.361C673.925 135.323 674.341 134.495 674.545 133.457C674.753 132.424 674.957 131.593 674.753 130.557L674.135 127.863C673.925 126.827 673.515 125.998 672.899 125.168C672.279 124.339 671.66 123.513 670.63 122.889L667.543 121.025L661.77 119.161L657.855 117.916C656.619 117.5 655.381 117.088 654.148 116.881L648.789 115.223L643.224 113.562L637.663 111.493L632.921 109.42C630.037 108.175 627.98 106.518 625.918 104.861C623.651 103.204 621.795 101.337 620.353 99.057C618.91 96.7785 617.676 94.4981 616.848 92.2176C615.82 89.732 615.205 87.2444 614.995 84.5496C614.793 81.8569 614.793 79.1622 615.205 76.6766C615.615 73.9818 616.438 71.4962 617.47 69.0086C618.498 66.521 619.941 64.2405 621.591 61.9621C623.239 59.6836 625.3 57.4031 627.566 55.7461C628.184 55.1226 629.005 54.7084 629.833 54.089C630.865 53.6727 631.895 53.0533 632.921 52.4279C633.952 51.8085 635.19 51.3922 636.424 50.978L640.751 49.3209C642.608 48.6975 644.464 48.4904 646.317 48.2852C648.379 48.0781 650.438 47.871 652.704 47.871ZM439.775 0V60.7584C439.775 61.1085 439.785 61.3992 439.824 61.6919V116.483C440.127 117.472 440.445 118.452 440.838 119.406C442.748 124.047 445.725 128.266 449.33 132.275C452.939 136.283 457.185 139.026 461.858 140.924C466.316 142.824 471.413 143.876 476.718 143.876C482.023 143.876 487.119 142.824 491.578 140.924C496.04 139.026 500.282 136.283 503.891 132.275C507.713 128.266 510.475 124.047 512.383 119.406C514.293 114.765 515.356 109.701 515.356 104.216C515.356 98.7317 514.509 93.6669 512.597 89.028C510.683 84.385 507.713 80.1658 504.107 76.1574C500.496 72.149 496.248 69.4057 491.578 67.5101C487.119 65.6082 482.023 64.556 476.718 64.556C471.413 64.556 466.316 65.6082 461.858 67.5101C461.654 67.5919 461.466 67.6984 461.264 67.7864V46.2521C461.893 46.031 462.484 45.7689 463.131 45.5683C466.316 44.514 469.921 43.6706 473.747 43.4577C478.205 43.2468 482.451 43.4577 486.909 44.3032C491.367 45.1466 496.04 46.6226 500.92 48.5224C505.803 50.4201 510.051 53.1634 514.085 56.3283C517.902 59.4933 521.514 63.0758 524.699 67.2992C526.394 69.6166 527.882 71.9381 529.367 74.6813C530.644 77.4225 531.703 80.1657 532.766 82.909C533.825 85.861 534.462 89.028 534.886 92.1909C535.525 95.3559 535.737 98.7317 535.737 102.318C535.737 106.327 535.525 110.122 534.886 113.709C534.462 117.296 533.825 120.461 532.766 123.623C531.703 126.79 530.644 129.742 529.367 132.486C527.882 135.229 526.394 137.97 524.699 140.292C521.514 144.722 517.902 148.308 514.085 151.473C510.051 154.636 505.803 157.167 501.345 159.068C497.311 160.755 493.277 162.02 489.243 162.864C485.21 163.707 481.39 164.129 477.781 164.129H475.655C472.045 164.129 468.65 163.707 465.253 162.653C461.858 161.599 458.673 160.121 455.486 158.434C452.301 156.536 449.544 154.636 446.996 152.738C444.447 150.628 442.113 148.308 440.204 145.987L438.08 153.158C437.229 155.901 435.958 159.279 434.684 163.288H418.974V0H439.775ZM333.016 68.1436C327.816 68.1436 322.819 69.1774 318.45 71.0383C314.075 72.9011 309.913 75.591 306.166 79.3148C302.629 83.0365 299.713 87.1737 297.841 91.5197C295.968 95.8637 295.136 100.828 295.136 106.001C295.136 111.172 295.968 115.928 297.841 120.48C299.713 124.824 302.629 128.962 306.166 132.685C309.913 136.409 314.075 139.097 318.45 140.96C322.819 142.823 327.816 143.854 333.016 143.854C338.217 143.854 343.214 142.823 347.583 140.96C352.164 139.097 356.328 136.409 359.867 132.685C363.611 128.962 366.526 124.824 368.398 120.48C370.271 115.928 371.311 111.172 371.311 106.001C371.105 100.828 370.271 95.8637 368.398 91.5197C366.526 87.1737 363.611 83.0365 359.867 79.3148C356.328 75.591 352.164 72.9011 347.583 71.0383C343.214 69.1774 338.217 68.1436 333.016 68.1436ZM769.264 116.258C776.85 116.258 783 122.381 783 129.935C783 137.49 776.85 143.613 769.264 143.613C761.677 143.613 755.526 137.49 755.526 129.935C755.526 122.381 761.677 116.258 769.264 116.258ZM769.264 68.3871C776.85 68.3871 783 74.5108 783 82.0655C783 89.6182 776.85 95.7419 769.264 95.7419C761.677 95.7419 755.526 89.6182 755.526 82.0655C755.526 74.5108 761.677 68.3871 769.264 68.3871ZM570.08 0C577.667 0 583.816 6.12369 583.816 13.6765C583.816 21.2312 577.667 27.3548 570.08 27.3548C562.492 27.3548 556.342 21.2312 556.342 13.6765C556.342 6.12369 562.492 0 570.08 0Z" fill="#5C0ED8"/>
</svg>
