<svg width="799" height="52" viewBox="0 0 799 52" fill="none" xmlns="http://www.w3.org/2000/svg">
<g clip-path="url(#clip0_465_3493)">
<path d="M102.005 34.0695C102.005 45.7432 108.401 51.91 122.13 51.91H182.643V41.7843H125.353C117.308 41.7843 115.836 39.1704 115.836 31.9251V30.2502H179.953V20.3275H115.836V10.1384H182.643V0H102.005V34.0695Z" fill="black"/>
<path d="M203.897 18.9825V51.91H217.652V36.7595H269.904V51.91H283.659V0H223.958C210.203 0 203.897 7.30877 203.897 18.9825ZM269.904 10.1384V26.5577H217.652V21.9897C217.652 14.884 218.794 10.1257 227.181 10.1257H269.904V10.1384Z" fill="black"/>
<path d="M300.484 10.1384H332.752V51.91H346.494V10.1384H378.825V0H300.484V10.1384Z" fill="black"/>
<path d="M68.8242 22.2689L17.6375 18.0435C13.4121 17.7136 12.6635 16.2417 12.6635 13.6912C12.6635 11.3438 13.945 9.9988 17.1553 9.9988H80.4091V0H15.5692C6.30635 0 0 3.55287 0 13.8816C0 24.2864 4.75831 27.7632 15.29 28.6387L66.6037 32.9275C70.5626 33.2574 71.6285 34.6024 71.6285 37.4194C71.6285 40.1094 70.423 41.7843 66.9336 41.7843H2.55046V51.91H68.0756C79.3433 51.91 84.3046 47.4182 84.3046 36.7595C84.3046 27.0272 79.8128 23.2079 68.8242 22.2689Z" fill="black"/>
<path d="M798.432 10.1384V0H717.795V34.0695C717.795 45.7432 724.19 51.91 737.919 51.91H798.432V41.7843H741.142C733.098 41.7843 731.626 39.1704 731.626 31.9251V30.2502H795.742V20.3275H731.626V10.1384H798.432Z" fill="black"/>
<path d="M680.832 0H620.319V10.1257V41.7843V51.91H633.426H680.832C693.838 51.91 700.246 46.365 700.893 35.8713H700.956V17.8405C700.969 6.16677 694.574 0 680.832 0ZM687.138 30.2502V31.9251C687.138 39.1704 685.666 41.7843 677.622 41.7843H633.439V10.1257H677.622C685.666 10.1257 687.138 12.7396 687.138 19.9849V21.6598V30.2502Z" fill="black"/>
<path d="M492.923 0H445.518C432.511 0 426.104 5.54502 425.456 16.0387H425.393V34.0695C425.393 45.7432 431.788 51.91 445.518 51.91H506.031V41.7843H492.923H448.741C440.696 41.7843 439.224 39.1704 439.224 31.9251V30.2502V21.6598V19.9849C439.224 12.7396 440.696 10.1257 448.741 10.1257H492.923H506.031V0H492.923Z" fill="black"/>
<path d="M405.332 10.6587H404.495H402.401H398.873C396.792 10.6587 395.765 11.5469 395.663 13.2218H395.65V16.1022C395.65 17.9675 396.678 18.9572 398.873 18.9572H401.741H403.835H405.332C407.413 18.9572 408.441 18.069 408.542 16.394H408.555V13.5137C408.555 11.6484 407.527 10.6587 405.332 10.6587Z" fill="black"/>
<path d="M405.332 32.9531H404.495H402.401H398.873C396.792 32.9531 395.765 33.8413 395.663 35.5163H395.65V38.3966C395.65 40.2619 396.678 41.2516 398.873 41.2516H401.741H403.835H405.332C407.413 41.2516 408.441 40.3634 408.542 38.6885H408.555V35.8081C408.555 33.9429 407.527 32.9531 405.332 32.9531Z" fill="black"/>
<path d="M589.663 21.5583V21.6598V30.2501V31.925C589.663 39.1704 588.191 41.7843 580.146 41.7843H578.116H569.525H560.935H552.091L534.974 50.9964C537.308 51.5927 539.96 51.91 542.993 51.91H560.935H574.043H583.382C596.388 51.91 602.795 46.3649 603.443 35.8713H603.506V17.8405C603.506 16.5716 603.417 15.3915 603.265 14.2495L589.663 21.5583Z" fill="black"/>
<path d="M536.687 31.9251V30.2502V21.6598V19.9849C536.687 12.7396 538.159 10.1257 546.203 10.1257H560.922H565.008H578.116H580.146C580.742 10.1257 581.288 10.1511 581.808 10.1764L595.855 2.62659C592.708 0.888218 588.571 0 583.369 0H574.385H565.008H562.978H542.98C529.974 0 523.567 5.54502 522.919 16.0387H522.856V34.0695C522.856 36.7976 523.224 39.1958 523.922 41.3148L536.75 34.4121C536.712 33.6508 536.687 32.826 536.687 31.9251Z" fill="black"/>
</g>
<defs>
<clipPath id="clip0_465_3493">
<rect width="798.432" height="51.91" fill="white"/>
</clipPath>
</defs>
</svg>
