<svg width="789" height="160" viewBox="0 0 789 160" fill="none" xmlns="http://www.w3.org/2000/svg">
<g clip-path="url(#clip0_303_1214)">
<path fill-rule="evenodd" clip-rule="evenodd" d="M173.574 30.0043C161.615 10.1135 134.813 21.4946 140.542 44.4553C148.225 75.2615 185.754 82.6414 199.582 110.108C207.175 125.19 202.419 140.269 190.799 146.888C178.881 153.676 158.74 156.362 146.367 147.291C140.164 142.744 140.679 139.313 137.407 147.867C136.354 150.622 134.603 153.654 131.193 150.744C125.823 146.183 125.933 131.71 134.981 125.551C140.748 122.475 144.66 124.098 150 129.378C162.958 140.024 179.455 136.86 183.725 128.047C186.482 122.379 183.703 113.514 178.195 107.327C170.225 98.3765 157.662 90.6633 147.318 78.5877C133.677 62.6624 123.275 44.8384 130.077 27.2789C135.993 11.9984 152.992 -2.07229 173.056 8.07704C184.91 14.0735 196.489 27.7694 189.848 41.3607C185.274 50.7301 171.118 53.7449 164.576 44.0447C160.631 38.1943 176.893 35.4138 173.582 30.0043H173.574Z" fill="#333230"/>
<path fill-rule="evenodd" clip-rule="evenodd" d="M225.954 62.0753C226.506 79.023 207.244 77.7086 206.725 61.4415C206.625 60.1716 206.812 58.8955 207.272 57.7075C207.732 56.5196 208.454 55.4503 209.383 54.5789C210.313 53.7074 211.426 53.0561 212.642 52.6733C213.857 52.2904 215.143 52.1857 216.405 52.3669C218.692 52.6728 220.83 53.671 222.533 55.2274C223.546 56.07 224.374 57.1137 224.963 58.2924C225.552 59.4712 225.889 60.7594 225.954 62.0753V62.0753Z" fill="#333230"/>
<path fill-rule="evenodd" clip-rule="evenodd" d="M208.2 99.9197C207.925 100.091 207.649 100.253 207.373 100.402C199.196 104.963 201.658 95.6511 206.061 90.1672C210.502 84.6309 214.232 82.5697 217.684 83.0492C219.07 83.1345 220.395 83.6539 221.47 84.5339C222.544 85.4138 223.315 86.6095 223.672 87.9516C225.896 98.6989 213.788 128.835 226.594 136.78C227.75 137.542 229.151 137.842 230.518 137.619C231.885 137.395 233.118 136.666 233.971 135.576C236.378 132.776 236.706 128.196 239.717 127.284C241.07 126.876 242.198 127.452 242.688 131.046C243.584 141.859 238.76 157.321 224.019 152.022C210.899 146.056 211.47 120.987 211.519 107.239C211.519 106.305 211.172 98.0816 208.189 99.9197H208.2Z" fill="#333230"/>
<path d="M303.163 81.3021C302.763 79.9645 301.935 78.7955 300.805 77.9753C299.675 77.1551 298.306 76.7292 296.91 76.7634C289.682 77.3338 288.273 77.039 281.513 77.4523C274.753 77.8657 268.972 78.144 264.159 78.3204C265.1 70.0532 266.042 61.786 266.985 53.5189C269.598 29.489 269.715 14.6999 267.335 9.15173C265.537 4.9465 262.658 3.30317 258.697 4.22175C252.53 5.36262 251.064 15.9997 250.386 35.9952C250.342 50.8373 251.065 65.6718 252.55 80.4395C251.075 80.8005 246.581 82.093 243.626 82.9803C241.179 83.649 238.812 84.5794 236.565 85.7553C236.031 86.0714 235.602 86.5389 235.334 87.0986C235.066 87.6584 234.969 88.2851 235.057 88.8996C235.138 90.8219 235.599 92.7092 236.414 94.4524C238.792 100.008 242.477 108.447 247.469 119.769C252.461 131.092 255.821 138.781 257.551 142.837C260.572 149.888 264.49 153.326 269.303 153.149C273.179 153.006 275.492 152.464 276.242 151.523C276.992 150.583 276.598 148.31 275.059 144.706C270.963 135.304 268.098 125.413 266.535 115.277C265.668 107.606 265.256 99.8905 265.3 92.1706C280.372 88.7067 290.713 89.6326 299.372 87.3343L299.821 87.1745C303.163 85.0746 301.316 86.1604 302.474 84.901C303 84.483 303.36 83.8899 303.486 83.2294C303.613 82.569 303.498 81.8851 303.163 81.3021V81.3021ZM257.713 128.246L257.278 128.797L256.586 128.827C256.586 128.827 256.266 128.196 255.359 126.322C254.452 124.448 251.078 112.403 250.893 112.196C250.708 111.99 247.728 100.857 247.383 99.6855C247.165 99.0588 247.13 98.3828 247.284 97.7372C247.553 97.14 247.941 96.6044 248.425 96.1637C249.584 95.4796 250.824 94.9444 252.117 94.5709L252.699 94.5406L253.209 95.4913L253.559 97.8639L254.433 103.78L257.107 120.789L258.008 127.251L257.713 128.246Z" fill="#333230"/>
<path fill-rule="evenodd" clip-rule="evenodd" d="M355.83 134.085C346.495 145.747 333.342 156.343 318.488 152.152C310.033 149.145 304.541 140.853 301.804 130.734C299.261 120.8 299.066 110.41 301.236 100.388C304.591 85.0278 313.876 72.4038 324.727 72.2798C345.128 74.3163 355.543 96.8581 345.15 112.759C339.36 121.604 327.368 126.11 321.551 128.896C319.345 129.952 317.609 130.439 317.906 134.741C318.607 145.067 336.102 144.901 347.113 122.139C348.127 120.045 355.011 111.009 359.499 113.72C368.908 119.408 356.982 132.655 355.83 134.091V134.085ZM313.043 119.91C325.292 115.994 335.324 105.404 336.239 99.611C337.965 88.6653 321.201 79.26 315.012 97.2053C313.435 101.78 313.005 111.877 313.046 119.91H313.043Z" fill="#333230"/>
<path fill-rule="evenodd" clip-rule="evenodd" d="M438.044 93.8351C437.151 103.034 451.068 150.603 441.058 151.43C435.158 151.912 431.533 152.532 429.983 149.355C428.514 146.323 434.317 121.847 429.553 129.274C428.451 130.977 428.668 131.115 426.909 134.27C410.506 163.591 388.261 155.795 375.326 131.947C366.61 114.751 363.146 95.3725 365.363 76.2233C368.894 42.2039 383.5 -2.3947 417.848 4.93001C444.835 10.6867 426.251 46.7509 416.819 37.533C394.528 -11.2874 350.073 106.624 399.258 135.119C413.464 143.347 425.606 116.526 422.692 104.72C420.651 96.4283 420.172 96.1389 416.047 97.3762C412.844 98.3407 401.858 107.752 398.79 104.908C394.947 101.344 392.871 87.3261 400.573 86.9183C409.483 86.4553 414.534 89.3461 425.062 76.6339C434.629 65.0792 442.431 68.5293 440.776 81.0431C440.054 86.5187 438.444 89.6409 438.036 93.8462L438.044 93.8351Z" fill="#333230"/>
<path fill-rule="evenodd" clip-rule="evenodd" d="M501.256 76.3583C493.144 70.4899 483.262 67.5849 473.263 68.1297C458.288 69.6812 444.44 79.7506 445.863 95.483C446.469 102.199 447.148 130.872 449.706 142.658C449.97 144.651 450.779 146.532 452.044 148.095C453.308 149.658 454.98 150.843 456.874 151.518C458.818 152.175 460.935 152.104 462.83 151.318C464.726 150.531 466.271 149.084 467.179 147.244C469.641 141.484 466.925 136.144 465.525 131.261C462.993 120.652 461.345 109.852 460.598 98.9717C458.944 81.4068 485.578 79.001 491.866 89.222C487.345 96.2105 493.895 100.603 502.092 94.2567C509.491 88.5248 506.525 80.4312 501.265 76.3666L501.256 76.3583Z" fill="#333230"/>
<path fill-rule="evenodd" clip-rule="evenodd" d="M537.638 153.061C574.5 146.847 588.676 89.5527 542.956 70.0064C495.392 54.6047 492.939 162.428 537.638 153.061ZM520.913 106.856C525.233 61.8467 554.858 82.7847 558.681 112.111C562.472 141.173 514.572 158.584 520.913 106.856Z" fill="#333230"/>
<path fill-rule="evenodd" clip-rule="evenodd" d="M590.821 94.2181C585.128 107.002 587.369 158.28 613.821 133.986C619.589 128.687 620.322 111.665 618.163 97.1033C617.662 93.7441 614.825 83.5204 613.871 80.4395C612.661 76.5126 615.927 71.0259 620.898 69.3505C622.922 68.7805 625.085 68.9764 626.974 69.9007C628.862 70.825 630.343 72.4128 631.134 74.3604C633.891 80.9272 632.077 91.6911 631.779 96.0975C630.903 109.24 628.747 125.413 633.433 133.914C635.429 137.546 638.192 137.913 638.288 140.619C638.638 150.294 627.123 156.492 622.745 150.487C621.576 148.886 622.544 146.241 620.763 145.053C599.014 164.572 575.06 149.266 575.427 121.31C575.507 115.197 574.655 105.224 576.868 96.5742C578.591 89.842 579.686 83.4294 583.209 79.7864C587.819 76.4575 590.198 78.4581 591.667 79.5549C594.898 81.9799 592.475 89.6243 590.824 94.2181H590.821Z" fill="#333230"/>
<path fill-rule="evenodd" clip-rule="evenodd" d="M688.069 137.816C691.945 124.633 696.486 103.114 693.583 95.1495C689.238 83.2173 672.686 78.8412 664.517 91.0518C659.505 98.5418 659.37 125.352 665.749 141.041C667.274 144.791 664.443 150.021 659.607 151.617C641.412 157.638 655.552 107.225 644.93 91.1179C642.641 87.654 639.852 87.3095 639.54 84.7219C638.418 75.4902 649.44 69.5654 654.292 75.3056C655.585 76.8378 654.824 79.3565 656.693 80.4946C676.879 61.8687 706.92 75.8678 708.767 102.54C708.93 116.447 706.522 130.265 701.666 143.298C700.53 146.315 698.889 149.118 696.814 151.587C695.694 152.678 694.203 153.307 692.639 153.347C691.076 153.387 689.554 152.835 688.38 151.802C684.962 149.49 686.776 142.201 688.063 137.814L688.069 137.816Z" fill="#333230"/>
<path fill-rule="evenodd" clip-rule="evenodd" d="M768.249 79.1415C769.967 64.6933 763.91 22.7043 752.811 21.6461C749.822 21.3706 749.117 14.0789 751.157 9.75796C753.197 5.43699 757.994 4.06739 765.991 7.36875C778.8 12.6597 779.776 60.7636 780.035 75.256C780.28 89.1834 779.602 106.454 781.736 119.648C782.41 123.872 783.631 127.991 785.369 131.9C787.701 137.185 790.028 140.848 788.526 143.84C785.273 150.316 775.353 152.852 771.985 149.655C769.647 147.431 768.613 143.416 768.02 138.704C748.885 169.152 718.515 145.196 714.223 115.914C710.088 87.6622 735.82 54.8691 768.257 79.1415H768.249ZM738.348 135.232C762.363 152.623 769.945 107.559 757.977 90.8644C743.302 70.4004 706.148 110.127 738.348 135.232Z" fill="#333230"/>
<path fill-rule="evenodd" clip-rule="evenodd" d="M36.4344 124.95C17.652 118.81 4.25096 100.57 0.964788 81.4564C-8.1025 28.6981 48.0684 -18.9042 104.168 7.52867C104.832 19.3783 99.3265 36.2405 84.219 41.3083C159.205 88.6296 95.0947 185.568 16.5107 153.692C2.17504 146.384 9.82807 133.024 25.1562 140.762C42.2735 146.662 64.5157 146.662 78.5316 138.927C87.6791 134.114 95.5108 127.139 101.345 118.609C103.433 115.437 105.244 112.09 106.756 108.606C107.944 105.809 111.774 94.2761 108.802 93.0167C108.057 92.7053 107.666 93.5871 107.462 94.4138C105.536 101.927 101.851 108.875 96.7103 114.685C90.5149 121.905 82.5284 127.369 73.5527 130.528C62.3461 134.609 49.3586 135.124 31.4997 131.219C32.6796 129.943 35.045 126.394 36.4179 124.95H36.4344ZM88.2026 12.2685C88.4962 13.9949 88.6657 15.74 88.7099 17.4906C89.0205 21.3284 88.4334 25.1858 86.9951 28.7577C85.5567 32.3295 83.3066 35.5178 80.4228 38.0703C79.1629 39.3325 77.7293 40.6442 76.1359 42.0055C97.314 55.1668 108.374 83.9504 96.0817 104.067C79.491 131.172 46.6127 125.011 28.6546 106.451C9.85012 87.023 12.3423 61.8853 25.8481 43.2539C33.1478 33.6329 42.5745 25.8298 53.3916 20.4545C64.2086 15.0793 76.1227 12.2776 88.2026 12.2685V12.2685Z" fill="#96CB4C"/>
<path fill-rule="evenodd" clip-rule="evenodd" d="M24.3761 71.7728C28.4066 31.5392 74.7106 23.5752 91.9189 77.1933C105.805 132.308 17.9829 120.312 24.3761 71.7728ZM62.1449 98.2277C98.7118 99.5615 81.1893 62.1801 57.1826 53.9185C33.3882 45.7312 20.1581 98.225 62.1449 98.2277Z" fill="#333230"/>
</g>
<defs>
<clipPath id="clip0_303_1214">
<rect width="789" height="160" fill="white"/>
</clipPath>
</defs>
</svg>
