<svg width="723" height="176" viewBox="0 0 723 176" fill="none" xmlns="http://www.w3.org/2000/svg">
<path d="M554.119 63.9819C554.119 55.7499 554.018 47.5163 554.176 39.2877C554.228 36.6167 553.546 34.4451 552.005 32.3272C548.353 27.3068 543.983 23.1909 538.145 20.8787C533.267 18.9467 528.182 18.4466 522.972 18.9302C517.132 19.4725 511.96 21.5334 507.632 25.5584C503.774 29.147 501.283 33.6366 499.301 38.4404C496.132 46.1176 494.871 54.1958 494.583 62.4294C494.389 67.9069 494.367 73.3968 495.132 78.8553C496.071 85.5447 497.976 91.8868 501.647 97.6198C504.982 102.827 509.554 106.425 515.464 108.29C520.53 109.888 525.713 110.088 530.941 109.503C534.344 109.122 537.613 108.19 540.641 106.55C546.468 103.397 550.596 98.5969 553.767 92.8755C554.091 92.2919 554.121 91.6893 554.121 91.0569C554.117 82.0322 554.119 73.0066 554.119 63.9819ZM525.42 0.470749C527.594 0.848541 529.789 1.06677 531.946 1.57518C541.406 3.80966 548.946 8.91846 554.736 16.6899C554.932 16.9537 555.146 17.205 555.362 17.4538C555.393 17.4893 555.479 17.4769 555.638 17.5017C555.925 15.3491 556.214 13.2014 556.498 11.0529C556.836 8.4985 557.182 5.94576 557.497 3.38889C557.579 2.71928 557.974 2.61678 558.528 2.61926C560.972 2.62836 563.416 2.62173 565.859 2.62173C569.095 2.62173 572.332 2.64323 575.567 2.6077C576.415 2.5986 576.814 2.86974 576.729 3.74187C576.707 3.97086 576.728 4.20398 576.728 4.43546C576.728 44.2808 576.751 84.1261 576.707 123.971C576.699 131.678 575.773 139.28 572.947 146.529C567.628 160.167 557.941 169.054 543.891 173.123C537.009 175.116 529.942 175.807 522.822 175.431C511.103 174.812 499.84 172.194 489.252 166.986C487.991 166.366 487.997 166.355 488.456 164.975C490.124 159.956 491.79 154.937 493.46 149.92C493.854 148.737 493.858 148.742 494.949 149.274C502.448 152.925 510.371 155.084 518.643 156.012C523.99 156.612 529.308 156.594 534.588 155.397C543.076 153.472 548.581 148.213 551.575 140.164C553.049 136.199 553.715 132.074 553.962 127.855C554.236 123.194 554.041 118.534 554.117 113.875C554.121 113.616 554.093 113.355 554.079 113.092C553.687 113.013 553.616 113.337 553.465 113.518C546.369 122.056 537.243 126.723 526.259 127.901C519.351 128.642 512.549 128.147 505.876 126.2C497.53 123.764 490.724 119.006 485.268 112.276C478.535 103.973 474.848 94.3511 473.079 83.9037C471.887 76.8622 471.738 69.7611 471.952 62.6534C472.234 53.3328 473.487 44.151 476.483 35.2742C478.937 28.0054 482.415 21.2854 487.351 15.3755C494.244 7.12459 503.028 2.2861 513.67 0.824554C514.483 0.712952 515.296 0.588959 516.108 0.470749H525.42Z" fill="#20C997"/>
<path d="M406.937 0.47065C409.275 0.859177 411.641 1.0551 413.96 1.59326C426.932 4.60564 435.862 12.2019 440.331 24.8606C442.135 29.9727 443.03 35.2675 443.451 40.6632C443.777 44.8536 443.782 49.0464 443.781 53.2426C443.778 70.9977 443.78 88.7529 443.78 106.508C443.78 108.133 443.784 108.114 445.333 108.38C450.667 109.294 455.996 110.232 461.331 111.132C462.04 111.251 462.255 111.591 462.253 112.262C462.237 116.462 462.234 120.661 462.255 124.86C462.259 125.594 461.96 125.892 461.255 125.85C461.026 125.835 460.793 125.85 460.562 125.85H404.397C404.199 125.85 403.998 125.831 403.802 125.851C402.915 125.937 402.562 125.563 402.576 124.653C402.613 122.008 402.587 119.363 402.587 116.718C402.587 115.263 402.61 113.808 402.58 112.354C402.564 111.598 402.816 111.244 403.617 111.113C409.053 110.216 414.48 109.262 419.914 108.347C420.705 108.213 421.196 108.036 421.194 107.021C421.159 86.8193 421.201 66.6172 421.127 46.4151C421.111 41.9842 420.517 37.588 419.157 33.3282C416.999 26.5751 412.568 22.0987 405.756 20.1833C397.976 17.996 390.201 18.0679 382.652 21.1638C375.747 23.9951 370.602 28.9038 366.864 35.332C366.586 35.809 366.505 36.3116 366.505 36.8514C366.509 60.2279 366.514 83.6035 366.488 106.98C366.487 107.95 366.909 108.208 367.74 108.348C373.107 109.253 378.468 110.213 383.84 111.094C384.736 111.241 384.975 111.618 384.97 112.456C384.941 116.424 384.959 120.391 384.957 124.358C384.956 125.802 384.911 125.848 383.442 125.849C369.08 125.85 354.716 125.85 340.353 125.85C335.796 125.85 331.239 125.852 326.683 125.847C325.404 125.846 325.32 125.764 325.318 124.509C325.312 120.508 325.333 116.507 325.302 112.506C325.294 111.625 325.553 111.238 326.486 111.086C331.858 110.208 337.216 109.236 342.587 108.349C343.584 108.184 343.912 107.819 343.912 106.764C343.879 78.5286 343.885 50.2922 343.885 22.0557C343.885 20.4313 343.883 20.4454 342.252 20.166C336.984 19.2641 331.72 18.3333 326.446 17.4611C325.576 17.3173 325.298 16.942 325.304 16.0955C325.332 11.996 325.334 7.89577 325.302 3.79633C325.294 2.887 325.62 2.6051 326.519 2.60675C338.67 2.6299 350.821 2.62824 362.972 2.60841C363.812 2.60757 364.11 2.88039 364.178 3.73351C364.614 9.23083 365.105 14.7232 365.582 20.2172C365.587 20.2726 365.639 20.3247 365.696 20.4231C366.762 18.9888 367.764 17.5314 368.876 16.1649C375.274 8.30414 383.299 3.07134 393.335 1.14769C394.756 0.87571 396.194 0.694672 397.625 0.47065H406.937Z" fill="#20C997"/>
<path d="M62.1882 71.0914C58.7869 71.0914 55.3864 71.1038 51.9852 71.0881C48.7044 71.0723 45.4608 71.3931 42.2651 72.1379C36.624 73.4507 31.7013 76.0224 27.803 80.4071C23.5596 85.1769 22.2635 90.7379 23.4341 96.9156C24.4017 102.026 27.3985 105.523 32.2015 107.485C34.6766 108.496 37.2787 108.962 39.9172 109.127C48.8687 109.689 57.2423 107.833 64.8572 102.946C69.16 100.185 72.8998 96.8495 75.6274 92.4615C76.15 91.6224 76.4282 90.7759 76.4224 89.7649C76.3878 83.9799 76.4067 78.1932 76.4043 72.4074C76.4043 71.1087 76.3894 71.093 75.066 71.0922C70.7731 71.0897 66.4811 71.0914 62.1882 71.0914ZM57.6278 0.470871C59.553 0.722176 61.4865 0.920586 63.4009 1.23637C71.3808 2.55243 78.729 5.37797 85.1593 10.4033C92.2211 15.9238 96.3637 23.1819 98.0784 31.9189C98.7496 35.338 99.0055 38.7984 99.0113 42.2647C99.0451 62.6949 99.0237 83.126 99.0352 103.556C99.036 105.404 98.9989 107.255 99.2193 109.101C99.3093 109.853 99.6131 110.095 100.323 110.183C102.68 110.47 105.026 110.847 107.383 111.136C108.134 111.228 108.392 111.549 108.389 112.285C108.369 116.451 108.363 120.616 108.394 124.781C108.4 125.627 108.049 125.858 107.27 125.857C98.1915 125.843 89.112 125.836 80.0334 125.866C79.0741 125.87 78.7967 125.42 78.6415 124.602C77.721 119.765 76.8633 114.922 76.5999 109.993C76.5892 109.803 76.6272 109.586 76.3217 109.416C75.53 110.298 74.7465 111.219 73.9127 112.094C66.1657 120.22 57.1086 126.004 45.824 127.771C41.5906 128.433 37.3464 128.314 33.0964 127.895C28.9059 127.482 24.8046 126.691 20.8667 125.164C10.0189 120.953 3.63897 113.005 1.3332 101.676C1.01123 100.095 0.81805 98.4879 0.56543 96.8924V88.1637C0.625695 87.8752 0.706596 87.59 0.744571 87.2982C1.65929 80.3872 4.41664 74.365 9.41786 69.4554C14.7105 64.259 21.1622 61.1052 28.1654 58.9675C36.487 56.4271 45.0612 55.7501 53.6949 55.6525C60.8591 55.5707 68.024 55.6335 75.189 55.6385C75.8569 55.6393 76.4356 55.6591 76.415 54.6919C76.3044 49.4393 76.5917 44.1825 76.2482 38.9315C75.615 29.2314 69.5109 21.8278 60.064 19.3486C53.6429 17.6631 47.1796 17.9193 40.7295 19.1147C35.6656 20.0521 30.9731 21.9221 26.8676 25.1246C26.0512 25.7611 25.5434 26.4869 25.3651 27.5558C24.7773 31.0749 24.0566 34.5717 23.4655 38.09C23.3153 38.9844 22.9388 39.2093 22.1009 39.2043C17.1153 39.1746 12.129 39.1911 7.14345 39.1886C5.73918 39.1886 5.72763 39.1779 5.72763 37.7337C5.72515 30.6913 5.74414 23.649 5.70616 16.6066C5.70121 15.6105 6.00666 14.9689 6.81158 14.3746C16.6266 7.1338 27.6709 2.99055 39.6662 1.23141C41.7491 0.926361 43.8468 0.721352 45.938 0.470871H57.6278Z" fill="#20C997"/>
<path d="M260.415 51.8249C269.461 51.8249 278.508 51.8249 287.555 51.8249C288.182 51.8249 288.812 51.9448 288.817 50.9329C288.841 45.7456 288.413 40.6285 286.595 35.7181C284.906 31.1533 282.481 27.0398 278.706 23.8951C272.503 18.7268 265.174 17.5976 257.455 18.4846C250.941 19.2327 245.932 22.7849 241.808 27.7185C236.297 34.3128 233.492 42.0545 232.245 50.4469C232.064 51.6662 232.231 51.8233 233.472 51.8241C242.453 51.8257 251.433 51.8249 260.415 51.8249ZM266.46 0.470726C268.704 0.826187 270.972 0.99234 273.21 1.4065C282.666 3.1549 290.986 7.07827 297.551 14.262C303.145 20.3826 306.792 27.5837 308.918 35.5735C310.532 41.6412 311.314 47.8181 311.287 54.0991C311.267 58.7615 311.284 63.423 311.282 68.0846C311.282 69.5412 311.279 69.5445 309.784 69.5445C284.36 69.5453 258.936 69.5453 233.513 69.5453C233.183 69.5453 232.85 69.5685 232.522 69.542C231.646 69.4693 231.372 69.8909 231.385 70.7258C231.449 74.8046 231.917 78.8338 232.846 82.8034C234.391 89.4027 237.115 95.4341 241.531 100.635C246.174 106.103 252.106 109.312 259.171 110.092C268.493 111.122 277.613 110.105 286.327 106.403C290.735 104.532 294.787 102.067 298.384 98.8912C298.977 98.3662 299.246 98.4191 299.637 99.0772C302.236 103.453 304.85 107.818 307.495 112.166C307.923 112.868 307.732 113.272 307.193 113.759C303.131 117.425 298.499 120.185 293.566 122.493C287.181 125.48 280.443 127.123 273.463 127.791C263.584 128.739 253.815 128.347 244.324 125.073C235.04 121.871 227.468 116.272 221.405 108.583C214.54 99.8749 210.761 89.8921 209.144 78.9859C208.047 71.5831 208.163 64.1373 208.466 56.7204C208.893 46.2664 211.561 36.3324 217.009 27.3192C223.54 16.5147 232.26 8.10995 244.169 3.39712C247.931 1.90829 251.849 0.996483 255.886 0.623657C256.111 0.602989 256.331 0.522804 256.554 0.470726H266.46Z" fill="#20C997"/>
<path d="M199.095 0.470657C200.739 0.817032 202.416 0.955925 204.059 1.32875C204.953 1.53211 205.154 1.97684 205.033 2.80103C204.117 9.07709 203.207 15.3523 202.334 21.6342C202.228 22.4021 201.96 22.6096 201.198 22.5617C197.479 22.3253 193.758 22.0591 190.034 21.9657C179.605 21.7053 171.67 25.9494 166.517 35.1717C165.603 36.8068 165.223 38.4643 165.227 40.3532C165.276 62.4384 165.259 84.5245 165.259 106.611C165.259 108.118 165.263 108.103 166.703 108.35C172.101 109.274 177.496 110.218 182.898 111.126C183.586 111.242 183.859 111.537 183.857 112.227C183.842 116.427 183.842 120.626 183.856 124.824C183.859 125.534 183.578 125.875 182.863 125.847C182.6 125.836 182.335 125.85 182.07 125.85H126.006C125.775 125.85 125.543 125.832 125.313 125.85C124.504 125.912 124.193 125.543 124.203 124.739C124.229 122.558 124.211 120.375 124.211 118.193C124.211 116.242 124.229 114.292 124.202 112.341C124.192 111.58 124.451 111.24 125.247 111.108C130.618 110.218 135.98 109.277 141.344 108.349C142.779 108.1 142.781 108.096 142.781 106.702C142.781 78.4336 142.781 50.1649 142.78 21.8962C142.78 20.4644 142.78 20.4529 141.38 20.2131C136.177 19.3203 130.973 18.4316 125.768 17.5496C124.218 17.2859 124.211 17.2958 124.211 15.7433C124.209 11.8092 124.232 7.87429 124.195 3.94019C124.186 2.98869 124.428 2.59933 125.468 2.60181C137.553 2.63322 149.638 2.6291 161.722 2.60843C162.618 2.60678 162.988 2.86056 163.093 3.81205C163.65 8.90102 164.28 13.9809 164.891 19.0624C164.922 19.3137 164.928 19.5882 165.234 19.8816C166.235 18.1878 167.253 16.5411 168.412 14.9894C172.622 9.34741 177.703 4.80157 184.378 2.26205C186.517 1.44862 188.73 0.933594 190.997 0.636826C191.256 0.602928 191.509 0.526871 191.764 0.470657H199.095Z" fill="#20C997"/>
<path d="M686.617 108.085C685.363 110.054 684.205 111.775 682.885 113.381C675.949 121.827 667.085 126.71 656.206 127.904C649.394 128.652 642.689 128.157 636.142 126.109C627.083 123.273 620.12 117.744 615.402 109.475C611.925 103.384 610.188 96.7217 609.203 89.8339C608.405 84.2605 608.212 78.6541 608.218 73.0311C608.241 56.0034 608.227 38.9749 608.227 21.9472C608.227 20.4518 608.227 20.4452 606.726 20.1054C602.927 19.244 599.132 18.3694 595.326 17.5477C594.468 17.3625 594.13 17.0062 594.139 16.0919C594.184 12.0256 594.187 7.95835 594.139 3.89198C594.129 2.87353 594.484 2.60155 595.464 2.60403C606.789 2.63214 618.114 2.62141 629.44 2.62305C630.834 2.62305 630.84 2.63049 630.84 4.09369C630.84 27.5363 630.848 50.9781 630.836 74.4199C630.833 80.3115 631.047 86.1833 632.266 91.9692C633.007 95.48 634.035 98.9041 636.167 101.859C639.166 106.018 643.32 108.412 648.305 109.211C656.574 110.537 664.662 109.849 672.248 106.051C678.406 102.97 682.772 98.0749 685.654 91.8344C685.857 91.3963 685.878 90.9441 685.878 90.4795C685.877 67.5329 685.873 44.5871 685.895 21.6405C685.896 20.7353 685.607 20.3658 684.722 20.2021C680.081 19.3474 675.452 18.4322 670.815 17.5502C669.446 17.2898 669.434 17.3005 669.433 15.9101C669.432 11.9421 669.431 7.97407 669.433 4.00689C669.435 2.63711 669.447 2.62305 670.815 2.62305C682.867 2.62141 694.92 2.6214 706.971 2.62222C708.505 2.62222 708.509 2.6247 708.509 4.15404V72.001C708.509 83.5736 708.523 95.1461 708.485 106.718C708.482 107.773 708.773 108.225 709.832 108.445C713.611 109.233 717.364 110.148 721.14 110.955C722.072 111.154 722.449 111.505 722.434 112.52C722.375 116.553 722.383 120.588 722.428 124.621C722.439 125.594 722.091 125.866 721.165 125.863C710.566 125.841 699.967 125.839 689.367 125.865C688.358 125.867 688.102 125.474 688.035 124.524C687.672 119.419 687.24 114.319 686.825 109.218C686.801 108.926 686.72 108.637 686.617 108.085Z" fill="#20C997"/>
</svg>
