<svg width="473" height="140" viewBox="0 0 473 140" fill="none" xmlns="http://www.w3.org/2000/svg">
<g clip-path="url(#clip0_465_3882)">
<path d="M108.112 0H62.7778L76.7766 43.8137H122.111L85.4449 69.9066L99.4438 113.953C123.038 96.6974 130.779 70.5576 122.111 43.7672L108.112 0ZM3.44454 43.8137H48.7787L62.7778 0H17.4434L3.44454 43.8137C-5.22365 70.6043 2.51746 96.7435 26.1116 114L40.1105 69.9533L3.44454 43.8137ZM26.1116 113.953L62.7778 139.999L99.4438 113.953L62.7778 87.4416L26.1116 113.953ZM368.25 42.6974C357.543 42.6974 350.682 47.5811 347.484 55.5346H346.649V19.4883H330.565V113.767H347.02V72.8367C347.02 62.6972 353.278 56.8834 362.132 56.8834C370.753 56.8834 375.852 62.4184 375.852 71.8602V113.767H392.307V69.1156C392.261 52.1393 382.712 42.6974 368.25 42.6974ZM436.761 19.3022C414.511 19.3022 401.068 36.7905 401.022 67.1627C401.022 97.6272 414.372 115.348 436.761 115.348C459.104 115.395 472.5 97.6739 472.5 67.1627C472.454 36.837 459.011 19.3022 436.761 19.3022ZM418.034 67.1627C418.08 44.9765 425.265 33.3021 436.761 33.3021C444.641 33.3021 450.482 38.6974 453.402 49.1625L418.312 74.7436C418.127 72.4185 418.034 69.86 418.034 67.1627ZM436.761 101.162C428.649 101.162 422.669 95.3948 419.842 84.2321L455.117 58.5112C455.396 61.2092 455.534 64.0926 455.534 67.2087C455.534 89.5346 448.349 101.162 436.761 101.162ZM256.491 84.3249C256.491 94.976 248.889 100.278 241.611 100.278C233.684 100.278 228.447 94.6505 228.447 85.7669V43.7207H211.991V88.3254C211.991 105.162 221.54 114.697 235.261 114.697C245.737 114.697 253.061 109.162 256.259 101.348H257V113.814H272.946V43.7207H256.491V84.3249ZM174.768 42.6509C160.074 42.6509 148.811 49.2091 145.195 61.9996L160.538 64.1859C162.16 59.395 166.796 55.302 174.861 55.302C182.51 55.302 186.682 59.2089 186.682 66.0928V66.3717C186.682 71.1159 181.722 71.3486 169.392 72.6506C155.856 74.0926 142.877 78.1859 142.877 93.9528C142.877 107.721 152.936 115.023 166.24 115.023C177.179 115.023 183.715 109.86 186.728 104H187.284V113.627H203.091V66.7438C203.137 48.2323 188.119 42.6509 174.768 42.6509ZM186.728 88.4648C186.728 96.2785 180.471 102.883 170.55 102.883C163.69 102.883 158.776 99.7202 158.776 93.674C158.776 87.3483 164.293 84.6971 171.617 83.6272C175.928 83.0229 184.549 81.9531 186.728 80.1856V88.4648ZM308.083 26.1859H291.627V43.7207H281.661V56.8834H291.627V95.6736C291.534 108.837 301.083 115.348 313.459 114.976C317.168 114.883 319.949 114.278 321.849 113.72V100.651C320.598 100.837 317.678 101.209 315.592 101.256C311.466 101.348 308.129 99.8136 308.129 93.1157V56.8834H321.849V43.7672H308.083V26.1859Z" fill="black"/>
</g>
<defs>
<clipPath id="clip0_465_3882">
<rect width="472.5" height="140" fill="white"/>
</clipPath>
</defs>
</svg>
