<svg width="734" height="136" viewBox="0 0 734 136" fill="none" xmlns="http://www.w3.org/2000/svg">
<path d="M100.936 87.0328C100.936 117.116 84.5614 135.999 61.506 135.999C46.4414 135.999 32.6868 126.883 27.3159 107.349H26.2679L25.613 133.134H0.723633V7.98291H26.2679V66.8471H27.3159C32.6868 47.0521 46.3104 38.0662 61.506 38.0662C84.5614 38.0662 100.936 56.8193 100.936 87.0328ZM75.1297 87.0328C75.1297 67.2378 65.3049 55.7775 50.6333 55.7775C35.8307 55.7775 26.1369 66.8471 26.1369 81.6934V92.6327C26.1369 107.349 35.8307 118.418 50.6333 118.418C65.3049 118.288 75.1297 106.828 75.1297 87.0328Z" fill="#141414"/>
<path d="M202.593 92.2424H131.724C132.117 107.74 142.466 116.856 156.875 116.856C168.534 116.856 177.049 110.084 179.407 101.098H201.676C198.663 124.67 176.525 136 156.875 136C126.615 136 107.227 118.679 107.227 86.6425C107.227 57.2104 126.091 37.8061 155.565 38.0666C185.039 38.1968 202.462 59.1639 202.462 84.9495V92.2424H202.593ZM131.724 78.438H177.442C176.394 64.894 167.355 57.2104 154.779 57.2104C142.335 57.2104 132.641 64.2429 131.724 78.438Z" fill="#141414"/>
<path d="M306.34 73.6193V133.135H280.665V81.3029C280.665 66.5869 272.936 58.1219 259.574 58.1219C245.427 58.1219 236.912 68.1496 236.912 84.9494V133.265H211.236V40.9315H235.995L236.912 68.931H237.96C240.711 49.6569 255.382 38.0664 271.888 38.0664C290.489 38.0664 306.34 50.6988 306.34 73.6193Z" fill="#141414"/>
<path d="M311.977 102.921H337.128C337.652 112.949 345.381 118.288 359.267 118.288C370.401 118.288 376.82 114.381 376.82 107.74C376.82 103.051 373.938 100.056 364.244 98.1027L343.023 93.6748C324.553 90.1586 313.942 80.782 313.942 66.7171C313.942 49.5267 330.185 38.0664 355.861 38.0664C384.418 38.0664 400.662 50.1778 400.662 71.5356H376.558C376.558 61.5079 369.353 55.7778 357.171 55.7778C345.905 55.7778 339.224 59.5544 339.224 65.9357C339.224 70.624 343.416 74.1402 351.145 75.703L374.2 80.6518C393.064 84.5587 402.364 93.0237 402.364 106.698C402.364 125.321 386.514 135.869 358.874 135.869C329.137 136 312.632 124.149 311.977 102.921Z" fill="#141414"/>
<path d="M503.618 73.6191V133.134H477.943V81.3027C477.943 66.0657 470.345 58.1216 456.853 58.1216C443.229 58.1216 434.19 67.8889 434.19 84.9491V133.265H408.515V7.98291H434.19V68.9308H435.238C437.989 49.6567 452.661 38.0661 469.166 38.0661C487.768 38.0661 503.618 50.6985 503.618 73.6191Z" fill="#141414"/>
<path d="M517.5 133.134H543.044V40.9312H517.5V133.134Z" fill="#141414"/>
<path d="M634.094 83.7772C658.067 84.1679 665.009 79.6098 665.009 70.8843C665.009 64.6333 660.163 57.0799 645.622 57.0799C631.212 57.0799 623.877 65.4147 622.829 77.3959H597.546C598.594 56.2985 613.528 37.936 645.491 37.936C677.192 37.936 690.292 54.3451 690.292 74.0099V133.004H665.795L665.14 104.223H664.223C661.734 124.8 647.456 135.869 628.068 135.869C610.253 135.869 596.629 127.665 596.629 110.344C596.629 94.4561 608.026 83.3865 634.094 83.7772ZM637.369 119.33C652.434 119.2 665.009 107.219 665.009 93.8049V79.74H664.092C662.259 90.9398 656.495 96.0188 634.749 97.4514C627.151 97.9723 622.305 101.879 622.305 108.391C622.436 115.423 627.675 119.591 637.369 119.33Z" fill="#141414"/>
<path d="M704.296 133.134H729.84V40.9312H704.296V133.134Z" fill="#141414"/>
<path d="M585.614 114.525C585.614 121.402 578.352 133.043 571.233 133.043C564.114 133.043 557.278 127.575 557.278 120.698C557.278 113.821 555.166 104.415 562.285 104.415C569.403 104.415 585.614 107.649 585.614 114.525Z" fill="url(#paint0_linear_170_982)"/>
<path d="M546.44 10.5591C546.44 17.436 539.177 29.0771 532.059 29.0771C524.94 29.0771 518.104 23.6087 518.104 16.7318C518.104 9.85486 515.992 0.44873 523.111 0.44873C530.229 0.44873 546.44 3.68221 546.44 10.5591Z" fill="#141414"/>
<path d="M733.276 10.5591C733.276 17.436 726.014 29.0771 718.895 29.0771C711.777 29.0771 704.941 23.6087 704.941 16.7318C704.941 9.85486 702.829 0.44873 709.947 0.44873C717.066 0.44873 733.276 3.68221 733.276 10.5591Z" fill="#141414"/>
<defs>
<linearGradient id="paint0_linear_170_982" x1="571.299" y1="104.415" x2="571.299" y2="133.043" gradientUnits="userSpaceOnUse">
<stop stop-color="#BEE8F1"/>
<stop offset="1" stop-color="#2CA8A0"/>
</linearGradient>
</defs>
</svg>
